<svg version="1.1" viewBox="0.0 0.0 364.50918635170603 355.244094488189" fill="none" stroke="none" stroke-linecap="square" stroke-miterlimit="10" xmlns:xlink="http://www.w3.org/1999/xlink" xmlns="http://www.w3.org/2000/svg"><clipPath id="p.0"><path d="m0 0l364.5092 0l0 355.24408l-364.5092 0l0 -355.24408z" clip-rule="nonzero"/></clipPath><g clip-path="url(#p.0)"><path fill="#000000" d="m0 0l364.5092 0l0 355.24408l-364.5092 0z" fill-rule="evenodd"/><path fill="#adadad" d="m250.99579 319.14694l0 0c-39.843674 0.029907227 -76.67511 -21.20401 -96.61423 -55.699677c-19.939102 -34.49565 -19.955063 -77.0096 -0.04185486 -111.52022c19.913193 -34.510612 56.7287 -55.772194 96.57237 -55.772194l0 111.49607z" fill-rule="evenodd"/><path fill="#adadad" d="m317.55774 41.181103l0 0c0 38.225063 -29.838287 69.2126 -66.64566 69.2126c-36.80739 0 -66.645676 -30.987534 -66.645676 -69.2126z" fill-rule="evenodd"/><path fill="#ffffff" d="m336.0057 24.790087c7.221344 6.768038 9.29895 16.824366 5.273834 25.527224c-4.025116 8.702858 -13.370209 14.359852 -23.721802 14.359852l0 -23.49606z" fill-rule="evenodd"/><path fill="#ffffff" d="m184.35408 64.67801l0 0c-10.429855 0.04183197 -19.854202 -5.6553 -23.87175 -14.430756c-4.0175476 -8.775455 -1.8356018 -18.897776 5.52684 -25.639698l18.248886 16.574615z" fill-rule="evenodd"/><path fill="#ffffff" d="m233.55664 106.85218l0 0c-13.921478 -7.7905273 -20.819275 -24.004532 -16.777405 -39.437065c4.04187 -15.432522 18.001999 -26.183716 33.955017 -26.149944c15.953003 0.033771515 29.867493 10.843975 33.843994 26.293476c3.9765015 15.449501 -2.9898987 31.634155 -16.944214 39.36567l-16.973923 -30.635605z" fill-rule="evenodd"/><path fill="#000000" d="m241.47757 94.13256c-8.381683 0.007003784 -16.127045 -4.469185 -20.305634 -11.734985c-4.178589 -7.265793 -4.1522064 -16.21154 0.06915283 -23.452576c4.221344 -7.2410355 11.992981 -11.671474 20.374466 -11.615047l-0.157547 23.401043z" fill-rule="evenodd"/><path fill="#ffffff" d="m250.99583 308.8136l0 0c-24.737244 0.029937744 -47.609787 -13.144806 -59.995697 -34.55789c-12.385895 -21.413116 -12.401871 -47.8087 -0.041885376 -69.23677c12.359985 -21.428085 35.216568 -34.630478 59.953827 -34.630478l0 69.212585z" fill-rule="evenodd"/><path fill="#ffffff" d="m162.6019 290.77817l0 0c-5.6522217 3.864502 -12.938263 4.415283 -19.107208 1.444458c-6.1689606 -2.9708557 -10.281036 -9.010773 -10.783707 -15.839325c-0.502655 -6.8285522 2.6806793 -13.405487 8.348114 -17.24765l10.740158 15.842529z" fill-rule="evenodd"/><path fill="#ffffff" d="m112.13814 298.5237l0 0c-8.016602 0.031677246 -15.439484 -4.2214355 -19.46608 -11.153503c-4.026596 -6.9320374 -4.0434875 -15.48703 -0.044296265 -22.434937c3.9991913 -6.9479065 11.40522 -11.23027 19.421883 -11.23027l0 22.40944z" fill-rule="evenodd"/><path fill="#ffffff" d="m54.154205 276.02756l0 0c-7.288513 -5.334503 -11.172264 -14.156036 -10.184906 -23.134033c0.9873581 -8.977997 6.695408 -16.74469 14.969028 -20.367722c8.273617 -3.6230164 17.852398 -2.5504456 25.119785 2.8127747l-14.992126 20.314957z" fill-rule="evenodd"/><path fill="#ffffff" d="m18.56617 210.28754l0 0c-0.038534164 -9.757385 5.1381073 -18.79213 13.575439 -23.693085c8.437336 -4.900955 18.850006 -4.921524 27.306625 -0.05392456c8.456627 4.8675995 13.6689 13.881836 13.6689 23.639297l-27.275585 0z" fill-rule="evenodd"/><path fill="#ffffff" d="m38.765175 146.19463l0 0c4.816574 -8.616028 13.868805 -14.002808 23.738953 -14.126556c9.870148 -0.12373352 19.05458 5.034424 24.08564 13.526978c5.031067 8.492554 5.1423187 19.025742 0.29175568 27.62268l-24.031494 -13.5590515z" fill-rule="evenodd"/><path fill="#ffffff" d="m94.21252 102.99978l0 0c9.510208 -4.138878 20.506935 -2.8822937 28.838287 3.2953262c8.331352 6.1776123 12.728111 16.335152 11.530251 26.637558c-1.1978607 10.302399 -7.8078537 19.180191 -17.334335 23.281479l-11.464561 -26.629929z" fill-rule="evenodd"/><path fill="#f1c232" d="m223.00394 71.81628l0 0c0 -4.3487015 3.5253143 -7.8740196 7.8740234 -7.8740196l0 0c2.0883179 0 4.091095 0.8295784 5.5677643 2.3062477c1.4766693 1.4766617 2.306244 3.4794464 2.306244 5.567772l0 0c0 4.348694 -3.5253143 7.874016 -7.874008 7.874016l0 0c-4.348709 0 -7.8740234 -3.525322 -7.8740234 -7.874016z" fill-rule="evenodd"/><path fill="#000000" d="m228.35039 72.561676l0 0c0 -1.243721 1.0082397 -2.2519684 2.2519684 -2.2519684l0 0c0.5972595 0 1.1700592 0.23726654 1.592392 0.6595917c0.4223175 0.42232513 0.6595764 0.9951248 0.6595764 1.5923767l0 0c0 1.2437286 -1.0082397 2.251976 -2.2519684 2.251976l0 0c-1.2437286 0 -2.2519684 -1.0082474 -2.2519684 -2.251976z" fill-rule="evenodd"/><path stroke="#000000" stroke-width="1.0" stroke-linejoin="round" stroke-linecap="butt" d="m228.35039 72.561676l0 0c0 -1.243721 1.0082397 -2.2519684 2.2519684 -2.2519684l0 0c0.5972595 0 1.1700592 0.23726654 1.592392 0.6595917c0.4223175 0.42232513 0.6595764 0.9951248 0.6595764 1.5923767l0 0c0 1.2437286 -1.0082397 2.251976 -2.2519684 2.251976l0 0c-1.2437286 0 -2.2519684 -1.0082474 -2.2519684 -2.251976z" fill-rule="evenodd"/><path fill="#000000" d="m260.3151 47.83599c8.381653 -0.007003784 16.127045 4.469185 20.305634 11.734985c4.1785583 7.2658005 4.152191 16.211548 -0.06915283 23.452583c-4.2213745 7.241028 -11.992981 11.671471 -20.374481 11.615044l0.15756226 -23.401047z" fill-rule="evenodd"/><path fill="#f1c232" d="m263.6942 71.81628l0 0c0 -4.3487015 3.5253296 -7.8740196 7.8740234 -7.8740196l0 0c2.0883179 0 4.091095 0.8295784 5.5677795 2.3062477c1.476654 1.4766617 2.306244 3.4794464 2.306244 5.567772l0 0c0 4.348694 -3.5253296 7.874016 -7.8740234 7.874016l0 0c-4.348694 0 -7.8740234 -3.525322 -7.8740234 -7.874016z" fill-rule="evenodd"/><path fill="#000000" d="m269.07742 72.561676l0 0c0 -1.243721 1.0082397 -2.2519684 2.2519836 -2.2519684l0 0c0.5972595 0 1.170044 0.23726654 1.5923767 0.6595917c0.42233276 0.42232513 0.6595764 0.9951248 0.6595764 1.5923767l0 0c0 1.2437286 -1.0082397 2.251976 -2.2519531 2.251976l0 0c-1.2437439 0 -2.2519836 -1.0082474 -2.2519836 -2.251976z" fill-rule="evenodd"/><path stroke="#000000" stroke-width="1.0" stroke-linejoin="round" stroke-linecap="butt" d="m269.07742 72.561676l0 0c0 -1.243721 1.0082397 -2.2519684 2.2519836 -2.2519684l0 0c0.5972595 0 1.170044 0.23726654 1.5923767 0.6595917c0.42233276 0.42232513 0.6595764 0.9951248 0.6595764 1.5923767l0 0c0 1.2437286 -1.0082397 2.251976 -2.2519531 2.251976l0 0c-1.2437439 0 -2.2519836 -1.0082474 -2.2519836 -2.251976z" fill-rule="evenodd"/><path fill="#000000" d="m266.38043 104.655426l0 0c-9.891632 4.624214 -21.622406 4.6195374 -31.514664 -0.012565613l15.755386 -28.002914z" fill-rule="evenodd"/><path fill="#b7b7b7" d="m246.23161 88.83561l0 0c2.4229126 -1.9317093 6.0335236 -1.9782562 8.526703 -0.10992432l-4.1790466 4.613617z" fill-rule="evenodd"/></g></svg>